<mxfile host="app.diagrams.net" modified="2022-08-01T16:07:55.765Z" agent="5.0 (Macintosh; Intel Mac OS X 10_13_6) AppleWebKit/537.36 (KHTML, like Gecko) Chrome/103.0.0.0 Safari/537.36" etag="rNwcgEAsX94ZERP3mpo8" version="20.2.2" type="github">
  <diagram id="UCE1r4CAv3ZGkEFV3aWx" name="第 1 页">
    <mxGraphModel dx="1084" dy="636" grid="1" gridSize="10" guides="1" tooltips="1" connect="1" arrows="1" fold="1" page="1" pageScale="1" pageWidth="827" pageHeight="1169" math="0" shadow="0">
      <root>
        <mxCell id="0" />
        <mxCell id="1" parent="0" />
        <mxCell id="00jFDCK2sOJXdH6hQx0g-1" value="" style="rounded=1;whiteSpace=wrap;html=1;" vertex="1" parent="1">
          <mxGeometry x="11" y="140" width="330" height="410" as="geometry" />
        </mxCell>
        <mxCell id="00jFDCK2sOJXdH6hQx0g-18" value="&lt;font style=&quot;font-size: 8px;&quot; color=&quot;#330000&quot;&gt;进程状态控制&lt;/font&gt;" style="edgeStyle=orthogonalEdgeStyle;rounded=0;orthogonalLoop=1;jettySize=auto;html=1;exitX=0.25;exitY=0;exitDx=0;exitDy=0;entryX=0.219;entryY=1;entryDx=0;entryDy=0;entryPerimeter=0;fontSize=14;fontColor=#BE3DFF;" edge="1" parent="1" source="00jFDCK2sOJXdH6hQx0g-2" target="00jFDCK2sOJXdH6hQx0g-11">
          <mxGeometry relative="1" as="geometry" />
        </mxCell>
        <mxCell id="00jFDCK2sOJXdH6hQx0g-2" value="" style="rounded=1;whiteSpace=wrap;html=1;" vertex="1" parent="1">
          <mxGeometry x="20" y="328" width="310" height="160" as="geometry" />
        </mxCell>
        <mxCell id="00jFDCK2sOJXdH6hQx0g-3" value="&lt;font color=&quot;#ff3333&quot; style=&quot;font-size: 14px;&quot;&gt;终端侧&lt;/font&gt;" style="rounded=1;whiteSpace=wrap;html=1;rotation=0;shadow=1;opacity=0;align=center;direction=south;" vertex="1" parent="1">
          <mxGeometry x="96.63" y="512" width="158.75" height="30" as="geometry" />
        </mxCell>
        <mxCell id="00jFDCK2sOJXdH6hQx0g-5" value="&lt;font color=&quot;#3075ff&quot;&gt;&lt;span style=&quot;font-size: 14px;&quot;&gt;PGuard守护进程&lt;/span&gt;&lt;/font&gt;" style="rounded=1;whiteSpace=wrap;html=1;rotation=0;shadow=1;opacity=0;align=center;direction=south;" vertex="1" parent="1">
          <mxGeometry x="96.63" y="450" width="158.75" height="30" as="geometry" />
        </mxCell>
        <mxCell id="00jFDCK2sOJXdH6hQx0g-7" value="" style="ellipse;whiteSpace=wrap;html=1;aspect=fixed;shadow=1;fontSize=14;fontColor=#3075FF;opacity=0;" vertex="1" parent="1">
          <mxGeometry x="370" y="350" width="80" height="80" as="geometry" />
        </mxCell>
        <mxCell id="00jFDCK2sOJXdH6hQx0g-11" value="" style="rounded=1;whiteSpace=wrap;html=1;shadow=1;fontSize=14;fontColor=#3075FF;" vertex="1" parent="1">
          <mxGeometry x="41" y="161" width="260" height="99" as="geometry" />
        </mxCell>
        <mxCell id="00jFDCK2sOJXdH6hQx0g-8" value="HCDN终端代理程序一" style="ellipse;whiteSpace=wrap;html=1;aspect=fixed;shadow=1;fontSize=14;fillColor=#d5e8d4;strokeColor=#82b366;" vertex="1" parent="1">
          <mxGeometry x="71" y="164" width="80" height="80" as="geometry" />
        </mxCell>
        <mxCell id="00jFDCK2sOJXdH6hQx0g-9" value="HCDN终端代理程序二" style="ellipse;whiteSpace=wrap;html=1;aspect=fixed;shadow=1;fontSize=14;fillColor=#d5e8d4;strokeColor=#82b366;" vertex="1" parent="1">
          <mxGeometry x="201" y="164" width="80" height="80" as="geometry" />
        </mxCell>
        <mxCell id="00jFDCK2sOJXdH6hQx0g-13" value="&lt;span style=&quot;font-size: 14px;&quot;&gt;&lt;font color=&quot;#be3dff&quot;&gt;代理进程组&lt;/font&gt;&lt;/span&gt;" style="rounded=1;whiteSpace=wrap;html=1;rotation=0;shadow=1;opacity=0;align=center;direction=south;" vertex="1" parent="1">
          <mxGeometry x="96.63" y="230" width="158.75" height="30" as="geometry" />
        </mxCell>
        <mxCell id="00jFDCK2sOJXdH6hQx0g-20" style="edgeStyle=orthogonalEdgeStyle;rounded=0;orthogonalLoop=1;jettySize=auto;html=1;fontSize=14;fontColor=#BE3DFF;" edge="1" parent="1">
          <mxGeometry relative="1" as="geometry">
            <mxPoint x="251" y="328" as="sourcePoint" />
            <mxPoint x="251" y="260" as="targetPoint" />
            <Array as="points">
              <mxPoint x="251" y="328" />
              <mxPoint x="251" y="260" />
            </Array>
          </mxGeometry>
        </mxCell>
        <mxCell id="00jFDCK2sOJXdH6hQx0g-21" value="&lt;font style=&quot;font-size: 12px;&quot;&gt;程序软件更新&lt;/font&gt;" style="edgeLabel;html=1;align=center;verticalAlign=middle;resizable=0;points=[];fontSize=14;fontColor=#330000;" vertex="1" connectable="0" parent="00jFDCK2sOJXdH6hQx0g-20">
          <mxGeometry x="0.0882" relative="1" as="geometry">
            <mxPoint as="offset" />
          </mxGeometry>
        </mxCell>
        <mxCell id="00jFDCK2sOJXdH6hQx0g-22" value="&lt;font color=&quot;#000000&quot; style=&quot;font-size: 14px;&quot;&gt;流量控制&lt;/font&gt;" style="rounded=1;whiteSpace=wrap;html=1;shadow=1;fontSize=12;fontColor=#330000;" vertex="1" parent="1">
          <mxGeometry x="41" y="340" width="70" height="100" as="geometry" />
        </mxCell>
        <mxCell id="00jFDCK2sOJXdH6hQx0g-23" value="&lt;font color=&quot;#000000&quot; style=&quot;font-size: 14px;&quot;&gt;安全审计&lt;/font&gt;" style="rounded=1;whiteSpace=wrap;html=1;shadow=1;fontSize=12;fontColor=#330000;" vertex="1" parent="1">
          <mxGeometry x="141.01" y="340" width="70" height="100" as="geometry" />
        </mxCell>
        <mxCell id="00jFDCK2sOJXdH6hQx0g-24" value="&lt;font color=&quot;#000000&quot; style=&quot;font-size: 14px;&quot;&gt;进程监测&lt;/font&gt;" style="rounded=1;whiteSpace=wrap;html=1;shadow=1;fontSize=12;fontColor=#330000;" vertex="1" parent="1">
          <mxGeometry x="241" y="340" width="70" height="100" as="geometry" />
        </mxCell>
        <mxCell id="00jFDCK2sOJXdH6hQx0g-25" value="" style="rounded=1;whiteSpace=wrap;html=1;" vertex="1" parent="1">
          <mxGeometry x="460" y="78" width="360" height="572" as="geometry" />
        </mxCell>
        <mxCell id="00jFDCK2sOJXdH6hQx0g-26" value="" style="rounded=1;whiteSpace=wrap;html=1;shadow=1;fontSize=12;fontColor=#330000;" vertex="1" parent="1">
          <mxGeometry x="500" y="100" width="290" height="130" as="geometry" />
        </mxCell>
        <mxCell id="00jFDCK2sOJXdH6hQx0g-27" value="" style="rounded=1;whiteSpace=wrap;html=1;shadow=1;fontSize=12;fontColor=#330000;" vertex="1" parent="1">
          <mxGeometry x="500" y="247" width="290" height="130" as="geometry" />
        </mxCell>
        <mxCell id="00jFDCK2sOJXdH6hQx0g-39" value="&lt;font style=&quot;font-size: 9px;&quot;&gt;重定向&lt;br&gt;合适的&lt;br&gt;代理进程&lt;br&gt;端口&lt;/font&gt;" style="edgeStyle=orthogonalEdgeStyle;rounded=0;orthogonalLoop=1;jettySize=auto;html=1;exitX=-0.007;exitY=0.638;exitDx=0;exitDy=0;entryX=0.991;entryY=0.93;entryDx=0;entryDy=0;entryPerimeter=0;fontSize=14;fontColor=#000033;exitPerimeter=0;" edge="1" parent="1" source="00jFDCK2sOJXdH6hQx0g-28" target="00jFDCK2sOJXdH6hQx0g-1">
          <mxGeometry relative="1" as="geometry" />
        </mxCell>
        <mxCell id="00jFDCK2sOJXdH6hQx0g-28" value="" style="rounded=1;whiteSpace=wrap;html=1;shadow=1;fontSize=12;fontColor=#330000;" vertex="1" parent="1">
          <mxGeometry x="500" y="400" width="290" height="192" as="geometry" />
        </mxCell>
        <mxCell id="00jFDCK2sOJXdH6hQx0g-29" value="&lt;font color=&quot;#ff3333&quot;&gt;&lt;span style=&quot;font-size: 14px;&quot;&gt;平台侧&lt;/span&gt;&lt;/font&gt;" style="rounded=1;whiteSpace=wrap;html=1;rotation=0;shadow=1;opacity=0;align=center;direction=south;" vertex="1" parent="1">
          <mxGeometry x="565.63" y="610" width="158.75" height="30" as="geometry" />
        </mxCell>
        <mxCell id="00jFDCK2sOJXdH6hQx0g-30" value="&lt;span style=&quot;font-size: 14px;&quot;&gt;&lt;font color=&quot;#9933ff&quot;&gt;智能调度&lt;/font&gt;&lt;/span&gt;" style="rounded=1;whiteSpace=wrap;html=1;rotation=0;shadow=1;opacity=0;align=center;direction=south;" vertex="1" parent="1">
          <mxGeometry x="565.63" y="562" width="158.75" height="30" as="geometry" />
        </mxCell>
        <mxCell id="00jFDCK2sOJXdH6hQx0g-31" value="&lt;font color=&quot;#000000&quot;&gt;&lt;span style=&quot;font-size: 14px;&quot;&gt;多进程状态同步通信&lt;/span&gt;&lt;/font&gt;" style="rounded=1;whiteSpace=wrap;html=1;shadow=1;fontSize=12;fontColor=#330000;" vertex="1" parent="1">
          <mxGeometry x="520" y="530" width="250" height="32" as="geometry" />
        </mxCell>
        <mxCell id="00jFDCK2sOJXdH6hQx0g-32" value="&lt;font color=&quot;#000000&quot;&gt;&lt;span style=&quot;font-size: 14px;&quot;&gt;高性能哈希存储节点&lt;/span&gt;&lt;/font&gt;" style="rounded=1;whiteSpace=wrap;html=1;shadow=1;fontSize=12;fontColor=#330000;" vertex="1" parent="1">
          <mxGeometry x="520" y="488" width="250" height="32" as="geometry" />
        </mxCell>
        <mxCell id="00jFDCK2sOJXdH6hQx0g-33" value="&lt;font color=&quot;#000000&quot;&gt;&lt;span style=&quot;font-size: 14px;&quot;&gt;动态配置更新&lt;/span&gt;&lt;/font&gt;" style="rounded=1;whiteSpace=wrap;html=1;shadow=1;fontSize=12;fontColor=#330000;" vertex="1" parent="1">
          <mxGeometry x="520.01" y="448" width="250" height="32" as="geometry" />
        </mxCell>
        <mxCell id="00jFDCK2sOJXdH6hQx0g-34" value="&lt;font color=&quot;#000000&quot;&gt;&lt;span style=&quot;font-size: 14px;&quot;&gt;重定向代理指向无缝切换&lt;/span&gt;&lt;/font&gt;" style="rounded=1;whiteSpace=wrap;html=1;shadow=1;fontSize=12;fontColor=#330000;" vertex="1" parent="1">
          <mxGeometry x="520.01" y="408" width="250" height="32" as="geometry" />
        </mxCell>
        <mxCell id="00jFDCK2sOJXdH6hQx0g-36" value="&lt;span style=&quot;font-size: 14px;&quot;&gt;&lt;font color=&quot;#cc0066&quot;&gt;多级管控&lt;/font&gt;&lt;/span&gt;" style="rounded=1;whiteSpace=wrap;html=1;rotation=0;shadow=1;opacity=0;align=center;direction=south;" vertex="1" parent="1">
          <mxGeometry x="560.62" y="347" width="158.75" height="30" as="geometry" />
        </mxCell>
        <mxCell id="00jFDCK2sOJXdH6hQx0g-37" style="edgeStyle=orthogonalEdgeStyle;rounded=0;orthogonalLoop=1;jettySize=auto;html=1;fontSize=14;fontColor=#000033;entryX=0;entryY=0.25;entryDx=0;entryDy=0;exitX=1;exitY=0.75;exitDx=0;exitDy=0;" edge="1" parent="1" source="00jFDCK2sOJXdH6hQx0g-1" target="00jFDCK2sOJXdH6hQx0g-28">
          <mxGeometry relative="1" as="geometry" />
        </mxCell>
        <mxCell id="00jFDCK2sOJXdH6hQx0g-38" value="&lt;font style=&quot;font-size: 9px;&quot;&gt;申请&lt;br&gt;重定向&lt;br&gt;代理进程&lt;/font&gt;" style="edgeLabel;html=1;align=center;verticalAlign=middle;resizable=0;points=[];fontSize=14;fontColor=#000033;" vertex="1" connectable="0" parent="00jFDCK2sOJXdH6hQx0g-37">
          <mxGeometry x="-0.7176" y="4" relative="1" as="geometry">
            <mxPoint x="44" as="offset" />
          </mxGeometry>
        </mxCell>
        <mxCell id="00jFDCK2sOJXdH6hQx0g-40" value="&lt;font color=&quot;#000000&quot;&gt;&lt;span style=&quot;font-size: 14px;&quot;&gt;多通道软件程序包更新路径&lt;/span&gt;&lt;/font&gt;" style="rounded=1;whiteSpace=wrap;html=1;shadow=1;fontSize=12;fontColor=#330000;" vertex="1" parent="1">
          <mxGeometry x="514.99" y="315" width="250" height="32" as="geometry" />
        </mxCell>
        <mxCell id="00jFDCK2sOJXdH6hQx0g-41" value="&lt;span style=&quot;font-size: 14px;&quot;&gt;&lt;font color=&quot;#000099&quot;&gt;智能分析&lt;/font&gt;&lt;/span&gt;" style="rounded=1;whiteSpace=wrap;html=1;rotation=0;shadow=1;opacity=0;align=center;direction=south;" vertex="1" parent="1">
          <mxGeometry x="560.62" y="195.5" width="158.75" height="30" as="geometry" />
        </mxCell>
      </root>
    </mxGraphModel>
  </diagram>
</mxfile>
